<svg id="svg" xmlns="http://www.w3.org/2000/svg" xmlns:xlink="http://www.w3.org/1999/xlink" width="1000" height="338.2789317507419" viewBox="0, 0, 400,338.2789317507419"><g id="svgg"><path id="path0" d="M144.941 24.637 C 134.309 28.435,135.450 40.486,147.091 47.343 L 149.512 48.769 149.168 50.019 C 147.302 56.798,139.125 70.037,137.978 68.137 C 137.362 67.116,136.008 57.752,135.369 50.085 C 134.562 40.408,133.166 36.708,129.315 34.039 C 126.500 32.089,120.493 31.614,115.892 32.980 L 114.213 33.478 114.318 42.438 L 114.423 51.399 111.740 54.380 C 95.623 72.287,83.940 75.197,86.105 60.765 L 86.336 59.222 88.283 59.222 C 97.259 59.222,103.720 53.626,103.718 45.854 C 103.717 39.340,100.512 36.717,92.555 36.718 C 78.161 36.719,69.046 46.514,68.459 62.615 C 68.068 73.328,71.070 78.049,79.028 79.232 C 88.292 80.610,105.274 70.370,114.177 58.038 C 114.776 57.208,114.805 57.316,115.385 62.606 C 117.184 79.008,121.990 84.739,131.841 82.228 C 143.397 79.283,152.253 68.799,156.325 53.244 L 156.694 51.834 157.958 52.198 C 158.653 52.398,160.486 52.560,162.031 52.557 C 164.474 52.554,164.811 52.624,164.620 53.096 C 163.199 56.604,162.635 66.380,163.632 70.208 C 168.582 89.212,198.092 77.167,214.917 49.274 L 217.185 45.516 220.690 45.637 C 222.619 45.703,224.235 45.793,224.283 45.837 C 224.331 45.880,223.689 50.592,222.856 56.307 C 218.232 88.043,220.207 96.969,231.719 96.367 C 241.211 95.870,250.069 86.359,257.165 69.043 L 259.086 64.354 259.673 66.630 C 263.382 81.032,280.669 77.841,287.800 61.438 C 288.419 60.012,288.981 58.791,289.049 58.723 C 289.116 58.656,289.122 63.271,289.062 68.979 C 288.649 108.466,292.185 125.550,300.774 125.550 C 313.926 125.550,318.756 105.032,312.706 74.859 L 311.456 68.624 321.549 55.818 C 327.100 48.775,331.641 42.943,331.641 42.859 C 331.641 42.775,331.164 42.404,330.580 42.034 L 329.518 41.362 326.970 44.623 C 322.344 50.546,315.559 58.527,309.526 65.144 L 307.983 66.836 307.968 57.322 C 307.959 52.089,307.811 47.059,307.637 46.143 C 306.001 37.519,299.674 33.644,289.932 35.301 L 288.324 35.575 288.540 38.865 C 289.138 47.995,286.650 57.724,282.514 62.422 C 275.595 70.283,273.857 65.221,276.459 44.782 C 277.555 36.169,276.476 33.624,270.897 31.669 C 267.635 30.526,260.612 30.535,261.052 31.682 C 261.158 31.960,260.873 35.111,260.418 38.683 C 259.963 42.255,259.416 47.157,259.202 49.577 C 258.027 62.880,248.194 84.042,242.526 85.465 C 239.249 86.287,239.082 81.212,241.674 59.560 C 243.636 43.175,240.752 38.357,228.596 37.708 C 221.921 37.352,221.320 36.977,221.320 33.169 C 221.320 25.959,216.590 23.647,207.187 26.261 C 205.482 26.735,205.418 26.794,205.665 27.676 C 205.806 28.182,205.856 29.662,205.775 30.964 C 205.237 39.616,206.262 41.984,211.349 43.840 C 212.738 44.346,213.875 44.835,213.875 44.926 C 213.875 46.003,206.107 55.102,200.804 60.237 C 188.297 72.348,180.711 73.316,180.711 62.801 C 180.711 59.501,180.895 59.222,183.076 59.222 C 191.979 59.222,198.481 53.578,198.475 45.854 C 198.470 39.339,195.266 36.717,187.310 36.718 C 178.627 36.718,172.140 40.053,167.771 46.760 C 165.834 49.734,165.443 49.946,162.564 49.586 C 158.797 49.116,157.290 48.477,157.501 47.442 C 160.741 31.555,154.959 21.058,144.941 24.637 M149.658 30.786 C 151.761 32.441,152.370 41.116,150.585 44.004 C 149.987 44.973,144.063 39.464,143.165 37.103 C 141.518 32.771,146.285 28.133,149.658 30.786 M98.003 44.444 C 98.740 45.078,98.950 45.597,99.075 47.101 C 99.487 52.070,95.074 56.176,89.322 56.176 L 86.705 56.176 87.018 54.738 C 88.927 45.973,94.122 41.105,98.003 44.444 M192.960 44.587 C 196.858 48.484,190.740 56.368,184.021 56.107 L 181.452 56.007 182.208 53.130 C 183.587 47.886,184.934 45.675,187.648 44.196 C 189.066 43.424,192.014 43.640,192.960 44.587 M309.820 75.465 C 311.796 83.169,311.831 93.559,309.909 101.692 C 309.233 104.551,309.173 104.665,308.937 103.553 C 308.407 101.059,307.954 89.911,307.976 79.938 C 308.003 68.415,308.008 68.402,309.820 75.465 M49.480 132.156 C 46.053 133.629,46.863 140.154,50.993 144.351 C 52.769 146.156,53.111 146.348,61.929 150.512 C 64.379 151.668,67.315 153.384,68.906 154.588 C 74.492 158.814,77.432 158.141,74.970 153.198 C 69.195 141.605,54.918 129.819,49.480 132.156 M138.530 132.346 C 136.268 133.216,134.070 135.176,132.814 137.443 L 131.810 139.255 131.717 164.009 C 131.611 192.364,131.475 190.954,134.628 194.182 C 137.494 197.116,138.641 197.462,145.516 197.462 C 153.183 197.462,156.069 196.080,158.433 191.279 L 159.222 189.679 159.222 164.636 L 159.222 139.594 158.390 137.902 C 157.255 135.591,154.651 133.170,152.396 132.326 C 149.757 131.338,141.118 131.351,138.530 132.346 M246.277 132.007 C 245.720 132.332,245.685 134.261,245.685 164.953 L 245.685 197.554 247.232 197.786 C 249.629 198.146,253.083 197.676,253.478 196.936 C 253.679 196.562,253.813 189.272,253.823 178.279 L 253.838 160.237 258.561 173.266 C 268.491 200.661,267.163 197.970,270.750 197.970 C 274.910 197.970,274.450 202.093,274.450 164.805 C 274.450 132.678,274.443 132.338,273.773 131.979 C 273.383 131.771,271.692 131.658,269.796 131.714 L 266.497 131.810 266.328 151.100 C 266.235 161.785,266.034 170.087,265.879 169.712 C 265.438 168.648,253.242 134.617,252.962 133.672 C 252.394 131.752,248.416 130.761,246.277 132.007 M347.299 131.992 C 342.198 133.021,334.678 139.147,328.817 147.049 C 321.904 156.366,323.038 160.617,330.870 154.744 C 332.630 153.424,335.565 151.701,338.071 150.515 C 340.398 149.415,343.407 147.983,344.759 147.333 C 353.717 143.027,355.829 130.270,347.299 131.992 M88.547 132.599 C 87.929 133.281,87.668 195.590,88.279 196.554 C 88.939 197.594,94.670 197.702,95.511 196.689 C 95.843 196.290,95.977 191.143,96.108 173.824 L 96.277 151.475 100.846 158.804 C 103.359 162.835,105.491 166.138,105.584 166.144 C 105.677 166.150,107.923 162.698,110.575 158.473 L 115.398 150.792 115.398 173.290 C 115.398 198.844,115.193 197.065,118.181 197.432 C 120.266 197.687,123.140 197.225,123.557 196.567 C 124.084 195.735,123.932 133.564,123.401 132.838 C 122.913 132.171,119.854 131.719,118.374 132.097 C 117.807 132.241,115.999 134.807,111.675 141.607 C 108.418 146.728,105.677 150.918,105.584 150.917 C 105.491 150.916,102.978 146.811,100.000 141.795 C 94.051 131.775,94.242 131.980,90.865 131.980 C 89.591 131.980,88.952 132.150,88.547 132.599 M167.701 132.732 C 167.233 133.399,167.174 137.011,167.174 164.873 L 167.174 196.262 168.006 196.807 C 169.046 197.488,174.078 197.631,174.713 196.997 C 175.028 196.681,175.167 191.161,175.296 173.933 L 175.465 151.283 179.764 158.129 C 182.128 161.894,184.271 165.258,184.525 165.605 C 184.947 166.180,185.379 165.613,189.429 159.175 C 191.871 155.292,194.102 151.810,194.386 151.438 C 194.851 150.829,194.904 153.037,194.918 173.435 C 194.927 185.905,195.062 196.310,195.218 196.556 C 196.070 197.900,202.003 197.828,202.897 196.463 C 203.722 195.204,203.461 133.604,202.627 132.769 C 201.877 132.019,197.875 131.694,197.119 132.322 C 196.840 132.554,194.007 136.835,190.823 141.837 C 187.639 146.838,184.981 150.931,184.915 150.931 C 184.849 150.931,182.329 146.806,179.315 141.765 C 173.329 131.753,173.539 131.980,170.217 131.980 C 168.545 131.980,168.144 132.100,167.701 132.732 M214.412 132.338 C 210.723 132.956,210.769 132.513,210.905 166.060 C 211.028 196.452,210.913 195.486,214.518 196.566 C 216.126 197.048,236.133 197.099,236.887 196.623 C 237.669 196.129,237.822 190.124,237.081 188.993 L 236.533 188.156 228.080 188.156 L 219.628 188.156 219.628 178.873 L 219.628 169.591 226.892 169.483 C 235.865 169.348,235.332 169.661,235.350 164.523 C 235.369 159.377,235.981 159.729,227.031 159.729 L 219.628 159.729 219.628 150.254 L 219.628 140.778 228.047 140.778 C 235.461 140.778,236.521 140.712,236.930 140.219 C 237.664 139.336,237.776 133.877,237.082 132.818 L 236.533 131.980 226.304 132.019 C 220.678 132.041,215.326 132.185,214.412 132.338 M277.983 132.798 C 277.400 133.224,277.327 133.706,277.327 137.101 C 277.327 141.970,277.038 141.782,284.512 141.789 L 290.005 141.794 290.096 169.401 C 290.201 201.463,289.664 197.970,294.481 197.970 C 299.320 197.970,298.816 201.313,298.816 169.226 L 298.816 141.836 304.935 141.730 C 312.380 141.601,312.014 141.855,312.014 136.841 C 312.014 133.640,311.955 133.331,311.261 132.845 C 310.183 132.089,279.014 132.045,277.983 132.798 M148.749 140.641 C 151.315 141.858,151.270 141.425,151.262 164.658 C 151.252 190.322,151.565 189.002,145.501 189.002 C 141.888 189.002,141.311 188.746,140.151 186.634 C 139.450 185.355,139.091 147.004,139.752 143.960 C 140.115 142.292,141.246 140.785,142.470 140.340 C 143.615 139.923,147.645 140.116,148.749 140.641 M41.963 160.420 C 33.086 161.915,29.742 165.233,32.824 169.487 C 36.164 174.098,41.965 175.159,52.333 173.055 C 57.614 171.983,59.250 171.799,65.313 171.595 C 70.584 171.417,72.555 171.228,73.519 170.808 C 82.723 166.797,56.112 158.038,41.963 160.420 M345.178 160.416 C 333.528 162.023,323.481 166.453,324.820 169.392 C 325.548 170.990,327.109 171.339,334.687 171.595 C 340.750 171.799,342.386 171.983,347.667 173.055 C 358.035 175.159,363.836 174.098,367.176 169.487 C 371.664 163.292,359.796 158.398,345.178 160.416 M68.359 180.242 C 53.430 182.006,39.203 189.953,41.265 195.377 C 43.670 201.701,61.919 195.555,73.370 184.564 C 77.054 181.028,75.205 179.433,68.359 180.242 M326.554 180.328 C 323.162 181.044,323.511 182.070,328.598 186.337 C 339.633 195.593,352.393 200.182,357.603 196.768 C 365.370 191.679,338.977 177.705,326.554 180.328 M168.697 204.288 C 168.049 204.417,168.025 204.645,168.140 209.572 C 168.361 219.060,167.552 231.458,166.702 231.620 C 166.310 231.695,163.858 232.013,161.252 232.327 C 158.646 232.640,155.372 233.076,153.976 233.296 L 151.438 233.695 151.558 235.375 C 151.624 236.300,151.760 237.191,151.860 237.355 C 151.964 237.527,155.288 237.551,159.621 237.411 L 167.199 237.167 167.011 239.311 C 166.592 244.087,166.159 257.417,166.159 265.543 L 166.159 274.177 164.356 276.936 C 159.052 285.050,155.045 288.410,153.159 286.326 C 151.532 284.528,150.827 275.238,151.527 264.802 C 152.425 251.394,147.502 245.962,135.406 247.020 L 133.248 247.208 133.308 251.137 L 133.368 255.065 129.374 254.911 C 116.132 254.401,104.850 263.370,105.296 274.052 C 105.464 278.077,91.868 290.446,88.808 289.052 C 87.322 288.375,87.297 284.664,88.685 270.728 C 90.191 255.612,87.618 250.758,77.378 249.395 C 68.046 248.154,61.857 253.443,58.872 265.212 C 58.337 267.319,57.868 267.234,57.868 265.030 C 57.868 257.732,55.561 252.059,52.387 251.554 C 48.956 251.009,46.686 253.458,43.786 260.831 C 43.587 261.337,43.482 260.079,43.474 257.109 C 43.445 245.847,37.446 240.454,27.209 242.486 C 26.532 242.620,26.506 242.784,26.654 245.933 C 26.764 248.289,26.556 251.231,25.928 256.176 C 22.106 286.292,23.356 293.232,32.602 293.232 C 39.029 293.232,42.078 289.879,43.837 280.880 C 46.196 268.812,50.214 256.164,51.548 256.607 C 52.203 256.824,53.090 260.773,53.655 265.990 C 54.639 275.078,55.398 277.157,57.733 277.157 C 59.492 277.157,60.021 276.055,61.204 269.921 C 63.276 259.181,65.669 254.206,69.783 252.085 C 75.443 249.168,76.561 254.350,73.840 270.897 C 70.652 290.285,70.746 296.005,74.304 299.129 C 79.986 304.118,94.744 296.332,104.556 283.170 L 107.012 279.875 108.376 281.043 C 113.391 285.336,122.977 283.956,129.579 277.992 L 130.964 276.740 130.964 282.043 C 130.964 290.862,132.554 295.058,136.717 297.229 C 143.676 300.859,158.006 293.670,164.775 283.154 C 165.587 281.892,166.311 280.919,166.384 280.992 C 166.456 281.064,166.822 283.239,167.195 285.824 C 169.057 298.703,171.564 302.257,178.436 301.759 C 185.737 301.229,193.574 296.053,200.008 287.513 L 201.512 285.516 202.071 288.866 C 203.793 299.177,206.600 302.392,213.326 301.755 C 220.565 301.070,227.432 296.374,234.725 287.123 L 235.778 285.787 236.161 287.571 C 240.369 307.169,271.334 294.581,287.730 266.607 L 289.848 262.995 293.232 263.186 C 295.093 263.291,296.688 263.440,296.776 263.518 C 296.865 263.596,296.284 268.258,295.487 273.877 C 291.141 304.497,292.594 313.108,302.299 314.249 C 311.983 315.387,322.463 304.756,330.189 285.956 C 330.452 285.315,330.532 286.135,330.518 289.340 C 330.446 306.257,343.315 315.350,358.717 309.264 C 371.217 304.325,370.195 295.219,354.582 272.429 C 351.972 268.618,349.767 265.321,349.683 265.101 C 349.595 264.872,350.512 264.218,351.831 263.569 C 356.809 261.118,366.817 262.348,374.725 266.382 C 376.276 267.174,376.259 267.184,376.059 265.586 C 375.914 264.418,375.737 264.251,373.316 262.997 C 364.447 258.406,356.085 257.409,349.281 260.131 L 347.107 261.000 346.476 260.196 C 342.452 255.063,339.180 243.985,340.416 239.676 C 340.778 238.416,340.544 238.413,337.225 239.636 C 324.893 244.179,322.193 254.135,329.800 267.008 C 331.984 270.705,331.930 270.007,330.431 275.181 C 326.231 289.669,319.826 301.621,315.441 303.149 C 311.796 304.420,311.544 299.018,314.248 277.496 C 316.344 260.811,313.513 256.205,300.735 255.508 C 294.542 255.171,294.317 255.020,294.070 251.065 C 293.625 243.944,289.284 241.569,280.711 243.758 L 278.342 244.363 278.342 250.354 C 278.342 258.711,279.613 260.779,285.546 262.083 C 286.872 262.374,286.871 262.306,285.575 264.191 C 280.584 271.444,269.188 282.686,263.604 285.863 C 256.752 289.762,253.475 287.975,253.471 280.338 L 253.469 277.257 256.271 277.042 C 268.295 276.118,275.592 264.880,269.025 257.400 C 264.545 252.297,251.340 253.651,244.188 259.947 C 240.063 263.577,235.871 272.236,235.871 277.125 C 235.871 279.006,229.483 287.057,226.414 289.043 C 223.319 291.047,221.640 289.980,220.457 285.256 C 219.429 281.154,219.155 236.649,220.151 235.582 C 220.212 235.516,221.985 235.258,224.091 235.010 C 235.439 233.670,235.522 233.642,235.234 231.303 L 235.025 229.611 227.614 229.744 L 220.202 229.878 220.405 228.560 C 221.501 221.444,220.993 213.154,219.253 209.744 C 217.262 205.840,209.526 203.087,203.645 204.191 L 202.488 204.408 202.641 208.122 C 202.788 211.695,202.217 226.546,201.805 229.865 C 201.578 231.691,201.173 231.947,200.849 230.470 L 200.629 229.467 193.377 229.677 L 186.125 229.887 186.140 227.888 C 186.148 226.788,186.286 223.851,186.446 221.360 C 187.119 210.934,184.671 206.540,177.092 204.566 C 175.332 204.107,170.417 203.945,168.697 204.288 M193.820 237.410 L 201.461 237.164 201.241 241.509 C 200.646 253.279,200.292 268.442,200.493 273.523 L 200.718 279.195 198.654 282.053 C 193.870 288.681,189.870 291.356,187.892 289.251 C 185.510 286.715,185.278 284.203,185.287 261.083 C 185.294 243.808,185.622 233.361,186.052 236.679 L 186.179 237.656 193.820 237.410 M132.549 262.521 C 132.442 263.219,132.250 264.746,132.122 265.915 C 131.574 270.937,121.586 276.844,118.947 273.707 C 115.821 269.992,119.490 263.808,125.719 262.293 C 131.636 260.853,132.798 260.892,132.549 262.521 M265.786 262.716 C 268.894 266.893,263.532 273.499,256.608 274.023 L 254.051 274.217 254.284 272.895 C 254.811 269.904,256.665 265.195,257.950 263.579 C 259.711 261.367,264.398 260.850,265.786 262.716 M341.037 282.754 C 349.186 293.856,351.249 303.585,345.447 303.546 C 338.392 303.499,334.008 292.068,337.078 281.725 C 338.026 278.531,337.917 278.503,341.037 282.754 " stroke="none" fill="#080808" fill-rule="evenodd"></path></g></svg>